# xmcd
#
# Track frame offsets:
# 150
# 11979
# 25003
# 37790
# 47486
# 59057
# 72683
# 83739
# 94891
# 104454
# 114521
# 124568
# 137502
# 146426
# 160415
# 171197
# 180945
# 192305
# 200415
# 214080
# 226635
# 238560
#
# Disc length: 3334 seconds
#
#
# Revision: 0
# Processed by: cddbd v1.5.1PL2 Copyright (c) Steve Scherf et al.
# Submitted via: FreeRIP 2.943 
#
DISCID=2a0d0416
DTITLE=Jerry Lee Lewis - Another Place Another Time/She Still Comes Around
DYEAR=1900
DGENRE=Country
TTITLE0=What´s Made Milwaukee Famous
TTITLE1=Play Me A Song I Can Cry To
TTITLE2=On The Back Row
TTITLE3=Walking The Floor Over You
TTITLE4=All Night Long
TTITLE5=I´m A Lonesome Fugitive
TTITLE6=Another Place Another Time
TTITLE7=Break My Heart
TTITLE8=Before The Next Teardrop Falls
TTITLE9=All The Good Is Gone
TTITLE10=We Live In Two Different Worlds
TTITLE11=To Make Love Sweeter For You
TTITLE12=Let´s Talk About Us
TTITLE13=I Can´t Get Over You
TTITLE14=Out Of My Mind
TTITLE15=Today I Started Loving You Again
TTITLE16=She Still Comes Around
TTITLE17=Louisiana Man
TTITLE18=Release Me
TTITLE19=Listen, They´re Playing My Song
TTITLE20=There Stands The Grass
TTITLE21=Echoes
EXTD=
EXTT0=
EXTT1=
EXTT2=
EXTT3=
EXTT4=
EXTT5=
EXTT6=
EXTT7=
EXTT8=
EXTT9=
EXTT10=
EXTT11=
EXTT12=
EXTT13=
EXTT14=
EXTT15=
EXTT16=
EXTT17=
EXTT18=
EXTT19=
EXTT20=
EXTT21=
PLAYORDER=
